<?xml version="1.0" standalone="no"?>
<!DOCTYPE svg PUBLIC "-//W3C//DTD SVG 20010904//EN"
 "http://www.w3.org/TR/2001/REC-SVG-20010904/DTD/svg10.dtd">
<svg version="1.0" xmlns="http://www.w3.org/2000/svg"
 width="300.000000pt" height="300.000000pt" viewBox="0 0 300.000000 300.000000"
 preserveAspectRatio="xMidYMid meet">
<metadata>
Created by potrace 1.14, written by Peter Selinger 2001-2017
</metadata>
<g transform="translate(0.000000,300.000000) scale(0.100000,-0.100000)"
fill="#000000" stroke="none">
<path d="M2036 2661 c-41 -6 -56 -15 -97 -58 -42 -44 -49 -58 -51 -95 -1 -24
-2 -52 -2 -63 -1 -15 14 -28 60 -51 58 -30 64 -31 110 -20 27 6 60 19 74 29
13 9 29 17 35 17 29 0 46 101 24 143 -20 38 -80 107 -92 106 -7 -1 -34 -5 -61
-8z"/>
<path d="M765 2627 c-52 -45 -69 -97 -49 -157 17 -50 48 -72 138 -95 44 -11
52 -11 90 8 22 11 51 24 64 30 25 12 27 32 11 107 -8 39 -21 61 -52 92 -38 37
-46 41 -103 44 -57 3 -64 1 -99 -29z"/>
<path d="M1120 2003 c-64 -10 -156 -36 -170 -48 -21 -18 -58 -36 -83 -40 -12
-3 -29 -13 -37 -22 -8 -10 -27 -26 -42 -36 -16 -9 -28 -23 -28 -30 0 -7 -9
-20 -20 -30 -15 -12 -20 -30 -21 -69 -2 -78 1 -91 22 -106 10 -7 19 -21 19
-32 0 -10 14 -31 30 -47 17 -15 30 -32 30 -38 0 -11 111 -65 138 -67 61 -5
101 4 128 27 51 45 114 118 114 133 0 6 10 17 23 23 12 6 41 31 65 55 l42 43
0 76 c0 51 -5 87 -16 108 -48 92 -95 116 -194 100z m49 -150 c17 -10 31 -23
31 -30 0 -7 6 -16 13 -20 7 -4 19 -23 27 -41 11 -27 11 -37 0 -57 -36 -68
-141 -88 -222 -43 -66 36 -64 96 2 166 34 35 47 42 80 42 21 0 52 -8 69 -17z"/>
<path d="M1090 1792 c0 -4 5 -13 12 -20 9 -9 7 -12 -10 -12 -25 0 -29 -21 -12
-64 21 -56 119 -14 105 44 -3 14 -15 33 -27 43 -20 17 -68 24 -68 9z"/>
<path d="M1742 1924 c-54 -10 -81 -20 -103 -41 -82 -74 -76 -176 12 -225 22
-13 55 -31 72 -40 17 -10 35 -27 39 -38 4 -11 16 -23 25 -27 10 -3 25 -12 33
-19 61 -52 206 -22 280 58 65 71 74 89 72 143 -2 44 -8 58 -35 87 -46 49 -144
96 -224 108 -79 11 -76 11 -171 -6z m96 -74 c6 0 30 -18 52 -40 29 -29 40 -48
40 -70 0 -16 -5 -30 -11 -30 -6 0 -22 -9 -36 -20 -14 -11 -39 -20 -55 -20 -25
0 -29 3 -23 18 13 29 5 85 -13 98 -41 32 -92 3 -92 -52 0 -41 -16 -53 -31 -21
-17 38 16 97 71 125 25 12 54 20 65 17 11 -2 26 -5 33 -5z"/>
<path d="M340 1522 c0 -10 -10 -38 -22 -63 -12 -24 -25 -62 -29 -84 -16 -84
-28 -132 -44 -180 -10 -27 -19 -70 -20 -95 -3 -46 -43 -170 -59 -181 -4 -4 -2
-9 5 -12 11 -4 11 -7 -1 -18 -9 -8 -23 -23 -30 -33 -14 -18 -13 -19 3 -13 30
11 18 -10 -13 -23 -27 -11 -34 -21 -32 -41 1 -4 -11 -12 -27 -19 -15 -6 -38
-24 -50 -40 -21 -29 -21 -37 -21 -375 l0 -346 205 2 c113 1 202 6 199 10 -3 5
-15 9 -26 9 -20 0 -21 1 -3 20 23 25 43 25 75 0 14 -11 41 -20 62 -20 20 0 40
-5 43 -10 4 -7 423 -10 1226 -10 l1219 0 0 304 0 305 -27 3 c-19 2 -29 11 -37
35 -12 34 -51 73 -73 73 -8 0 -13 6 -10 13 2 6 -7 19 -20 28 -14 9 -24 18 -23
20 6 12 -31 79 -44 79 -10 0 -17 15 -21 48 -3 26 -10 55 -16 64 -5 10 -9 25
-9 33 0 9 -7 26 -14 38 -8 12 -18 54 -22 92 -5 47 -13 75 -25 85 -13 12 -15
20 -7 33 5 10 6 27 2 40 -5 12 -9 24 -9 27 -1 3 -5 12 -8 20 -4 8 -8 26 -10
40 -1 14 -7 33 -12 42 -10 16 -12 16 -42 -3 -22 -14 -30 -25 -26 -39 6 -21 3
-22 -72 -24 -42 -1 -41 -1 -44 -59 -1 -18 -6 -27 -13 -24 -7 2 -12 14 -10 25
4 27 -15 28 -57 5 -32 -18 -43 -57 -18 -66 6 -2 -12 -7 -42 -11 -40 -5 -61
-14 -83 -37 -16 -16 -33 -29 -37 -29 -4 0 -16 -17 -27 -37 -10 -21 -22 -40
-25 -43 -3 -3 -8 -13 -12 -22 -9 -25 -56 -23 -91 5 -19 15 -31 36 -35 62 -7
46 -31 60 -31 19 0 -27 -1 -27 -17 -11 -13 13 -15 19 -5 29 14 14 16 58 2 58
-5 0 -10 -10 -10 -21 0 -18 -2 -20 -16 -9 -13 12 -15 8 -10 -33 6 -45 5 -47
-18 -47 -16 0 -27 7 -31 21 -5 15 -10 17 -20 9 -24 -20 -27 7 -6 73 10 34 32
85 48 112 36 62 45 85 33 85 -6 0 -12 0 -15 0 -3 0 -5 -3 -6 -7 -3 -20 -21
-43 -34 -43 -8 0 -21 -12 -29 -27 -14 -26 -15 -27 -16 -5 0 31 -16 28 -25 -5
-6 -26 -8 -27 -20 -10 -8 11 -19 15 -30 11 -13 -5 -16 -2 -13 12 2 12 12 19
25 18 18 0 20 4 15 40 -9 71 -54 97 -96 57 -12 -11 -55 -33 -98 -50 -95 -38
-171 -41 -265 -9 -71 25 -83 20 -83 -34 0 -36 72 -111 132 -138 71 -32 74 -35
38 -54 -41 -20 -57 -20 -94 -1 -15 8 -36 15 -46 15 -10 0 -25 6 -32 13 -14 15
-53 37 -63 37 -14 0 17 -39 35 -45 11 -3 20 -13 20 -21 0 -8 4 -14 8 -14 4 0
27 -18 51 -40 55 -51 158 -100 226 -107 33 -4 72 0 107 11 71 20 104 20 112 0
8 -22 10 -19 -30 -57 -47 -44 -133 -87 -187 -95 -23 -3 -45 -10 -49 -16 -4 -7
-45 -10 -108 -9 l-100 1 0 -30 c0 -22 11 -41 40 -71 38 -37 50 -75 22 -70 -6
2 -33 5 -59 8 -27 3 -63 10 -82 15 -19 5 -38 7 -42 4 -4 -2 -19 7 -32 21 -22
24 -63 40 -126 50 -12 2 -33 12 -45 22 -11 11 -52 35 -90 54 -38 19 -81 49
-95 66 -14 18 -33 33 -43 33 -9 0 -21 13 -27 30 -7 20 -17 30 -31 30 -12 0
-24 9 -30 23 -5 12 -34 48 -64 80 -36 38 -58 70 -62 92 -4 25 -12 35 -28 37
-13 2 -21 10 -22 23 0 22 -13 74 -22 90 -3 5 -7 22 -9 39 -2 16 -8 35 -14 42
-6 8 -12 36 -12 64 0 27 -4 50 -9 50 -4 0 -8 -8 -8 -18z m2165 -202 c3 -5 -1
-10 -9 -10 -9 0 -16 5 -16 10 0 6 4 10 9 10 6 0 13 -4 16 -10z m-824 -53 c-10
-9 -11 -8 -5 6 3 10 9 15 12 12 3 -3 0 -11 -7 -18z m179 -178 c0 -5 -7 -9 -15
-9 -8 0 -15 7 -15 15 0 9 6 12 15 9 8 -4 15 -10 15 -15z m-1510 -1039 c0 -5
-4 -10 -9 -10 -6 0 -13 5 -16 10 -3 6 1 10 9 10 9 0 16 -4 16 -10z"/>
<path d="M2461 1401 c-10 -7 -10 -10 -1 -16 6 -4 16 -3 22 3 13 13 -4 23 -21
13z"/>
</g>
</svg>
